<?xml version="1.0" encoding="utf-8"?>
<!-- Generator: Adobe Illustrator 23.0.3, SVG Export Plug-In . SVG Version: 6.00 Build 0)  -->
<svg version="1.1" id="Layer_1" xmlns="http://www.w3.org/2000/svg" xmlns:xlink="http://www.w3.org/1999/xlink" x="0px" y="0px"
	 viewBox="0 0 646.8 157.1" style="enable-background:new 0 0 646.8 157.1;" xml:space="preserve">
<style type="text/css">
	.st0{fill:#4F86E6;}
</style>
<g>
	<path class="st0" d="M199.3,9.4c-1-1.2-2-2.4-3.4-3.9c6,0,11.6-0.2,17.2,0.1c1.9,0.1,4.7,0.5,2.9,3.9l0.2-0.2
		c-0.7,0-1.5,0.2-2.1-0.1c-3.8-1.6-7.4-4.8-11.2,0.3c-0.4,0.6-2.6-0.1-4-0.2L199.3,9.4z"/>
	<path class="st0" d="M559.5,134.7c-1.5,2.6-2.9,1.6-4.1,1.3c-1.3-0.3-2.7-0.5-4.8-0.8C553.8,133.8,556.3,134.2,559.5,134.7z"/>
	<path class="st0" d="M590.8,25.7c-2.7,1.2-4.9,0.3-8.3-0.8C586.5,22.8,588.4,26,590.8,25.7z"/>
	<path class="st0" d="M585.4,130.8c-3.9,1.7-6.9,0.7-9.8,1C578.4,129.4,581.5,130.5,585.4,130.8z"/>
	<g>
		<path class="st0" d="M216.1,9.5c0.1,0,0.1,0,0.1,0c0-0.1,0.1-0.1,0.1-0.2L216.1,9.5z"/>
		<path class="st0" d="M610.2,79c-1.4,0-2.9,0.1-3.1-1.9c2.6,1,5.2,0.3,7.7-0.1c2.1-0.3-0.2-0.7-0.4-0.9c-1.4-1.6-0.7-2.7,1-3
			c2.6-0.3,5.2-0.3,7.8-0.3c7.9,0,15.7,0,23.6,0c-4-0.3-8.5,0.6-11.9-0.9c-8-3.4-16.3-2.2-24.4-3.1c-1.7-0.2-3.7,0.4-5.7-2
			c12.8-0.8,24.9-0.9,36.9-1.1c-15.1-1.2-29.9-4-44.9-6.3c5.3-1.2,10.5-2.4,15.8-3.6c-11.3-1.4-22.3-2.7-33.3-5.8
			c1.6-2.5,3.7-2.7,5.9-2.7c8-0.1,16.1,0.1,24.1-0.1c7.7-0.2,15.3-0.7,23-1c-5.2-1.2-10.4-0.9-16.1-1.9c2.8-0.5,5-0.8,7.2-1.2
			c-13.8-0.1-27.3-2.7-40.8-4.2c0.2-1.7,3.1-0.4,2.3-3c-4.5-0.6-9.3,0-13.8-1.7c4.6-0.7,9.3-0.1,14.2-1.4c-1.1-2.7-2.9-2.9-4.7-2.5
			c-1.6,0.4-2.1-0.3-2.4-1.7c-0.6,1.1-1.8,1.8-2.6,0.9c-1.1-1.3,0.3-1.9,1.3-2.3c1.1-0.4,2.2-0.1,3,0.8c-0.9-1.5-0.4-3.4-2.9-4.3
			c-7.4-2.4-14.7-4.9-22.4-6.2c-0.9-0.2-2.4-0.1-2.3-2c3.6,0.3,7.1,0.5,11.5,0.9c-5.9-5.4-13.5-2.7-19.3-6.6c3-0.2,5.5-0.3,8.1-0.5
			c-7.4-3.5-15.2-4.4-22.8-4.9c-7.4-0.5-14.7-5.5-22.3-1c-0.2,0.1-0.8-0.4-1.2-0.5c-2.6-0.4-5.1-0.4-7.7,0c-2.5,0.4-5.6,1.7-7.2-2.1
			c-0.5-1.2-1.7-0.5-2.4,0c-1.2,0.9-2.8,1.6-4,1.1c-6.1-2.4-11.8,0.9-17.6,1.3c-31.3-1.8-62.7-2.1-94.1-0.7c-0.8,0-1.6,0.1-2.3,0.1
			c-5.7-0.6-11.5-0.9-17.2-1c-9.9-0.2-19.7,0.6-29.5,1.8c-7.8,1-15.7,3.3-23.6,4.2c-1,0-2.1,0-3.2,0c-1.9-0.8-4-1-6.3-0.9
			c-4,0.1-7.9,0.9-11.7,2.3c-0.5,0.2-1.1,1-1.2,1.6c-0.6,4.6-3.5,2.7-5.2,2.7c-2.1-3.4,2.4-3.7,2.2-6.6c-3.7,0.5-7.7-1.9-10,2.8
			c-0.3,0.6-4.3,2.5-3.1-2c0.4-1.3-1.1-1-2-0.7c-0.9,0.3-2,1.2-2.5,1C252,5,246.1,7.4,240.6,5.3c0.2,1.5,0.4,2.6,0.6,3.7
			c-2,0.1-3.6-1.6-5.6-1c-3.5,1,1-2.5-1.5-2.5c-3.9-0.1-7.8-0.5-13.4,0.1c3.1,1.3,4.7,2,6.4,2.7c-1.7,3-3.8,4.1-7,2.5
			c-1.2-0.6-2.4-1.4-3.8-1.3c-2.1,4.6-3.8,5.6-8.6,5.5c-4-0.1-8-0.2-8.5-5.5c-5.9,2.7-12.2,1.7-18.3,1.3c-2.6-0.1-3.6-1.8-4.1-4
			c1.5-0.4,3.1-0.5,4.2,0.5c3.8,3.4,5,0.5,7.1-3c-5.5,0.3-10.1-0.1-14.6-0.4c-16.2-1.2-32.5,0.3-48.8-1.1
			c-13.1-1.1-26.4,0.6-39.6,1.4c-8.6,0.5-17.1,1.6-25.7,2.4C44.9,7.9,30.7,9.2,16.7,12c-3.3,0.6-7.5,0.9-9,3.5
			c-1.6,2.8-1.6,6.3-5.9,6.3c0.2,0.1,0.5,0.3,0.5,0.4c0.8,4.2-0.4,9.1,3.9,12.1C4.4,36.2,2.5,38,0.9,40c-1.5,1.9-1.2,3.3,1.7,3.8
			c3.8,0.7,7.7,0.5,11.8,2.2c-1.5,1.8-3,1.2-4.3,1.5c-4.5,1-4.7,6.4-3,10.5c1.3,3.3,9.3,5.3,3.4,10.9c-0.2,0.2,0.7,1.8,1.3,2.4
			c1.4,1.2,3.2,1.9,5.1,2.2c4,0.7,8,1.8,12,2.7c0.3,0.5,0.5,1.1,0.8,1.6c-4.9-0.3-5.7,4.2-9.1,5.8c-1.8,0.9-2.5,2.5-1.1,4.7
			c2.2,3.5,1.3,8.6,5.8,10.9c0.9,0.4,1.1,1.2,0.9,2.3c-0.9,5-0.8,4.9,3.5,6c3.2,0.8,7.5,0,7.9,5.2c0,0.3,1.2,0.9,1.8,0.8
			c4.8-0.8,8.5,2.3,12.7,3.4c0.9,0.2,2.6,0.6,2.6,0.1c0.3-5.4,3.7-2.1,5.3-1.7c7.5,1.8,14.9,4.2,22.4,6c2.8,0.7,5.7,1,8.9,0.7
			c5.2-0.4,10.5-0.8,16,0.4c6.1,1.4,12.2,3.7,18.5,4.2c8.2,0.7,16.3,1.5,24.3,3.6c1.5,0.4,3,1.6,5,0.1c-0.9-2.1-1.1-4.4,0.9-6.3
			c0.2-0.2,1,0,1.3,0.3c2,1.8,1.6,3.6,0.1,5.5c-0.2,0.2,0.1,0.8,0.2,1.5c5.8,0.8,11.6,1.3,17.4,2.4c4.4,0.8,8.6,2.1,12.1-2.1
			c0.7-0.8,2-1.3,3.1-1.4c4.3-0.4,8.4,2.2,12.9,0.2c0.9-0.4,3.2,1.5,3,4.1c-4.7,0.2-9.1,0.4-13.1-2.3c-1.1-0.7-1.8-0.3-2.1,0.7
			c-0.3,1.1-0.5,2.4,1.2,2.7c0.9,0.1,1.9,0,2.8,0c5.6,0.2,11.4-0.4,16.8,0.8c12.5,2.9,25.2,1.9,37.8,3.8c8.2,1.3,16.8,1.6,25.3,1.4
			c5.1-0.1,10.8-1.1,15.4,0.4c12.5,4,25.4,2.2,38,4.7c6.9,1.4,14.4,0.6,21.6,1.8c6.7,1.1,13.4,0.1,20.2,1.2
			c13.3,2,26.8,2.9,40.2,3.9c12.9,1,25.9,1.8,38.9,2.4c14.6,0.8,29.3,1.2,43.9,0.6c12.9-0.5,25.9-2.1,38.7-0.3
			c5.3,0.7,7.1-1.8,8.3-4.7c1.9-4.7,5.3-9.5,2.2-15.1c-0.4-0.8-0.6-2.9,0.7-3.1c3-0.4,5.6-2.9,8.2-2.9c10.3,0,20.2-1.4,29.5-6.2
			c0.8-0.4,1.6-0.6,2.6-0.6c3.4,0.1,7,0.5,9.5-3c0.7-0.9,3.1-1.6,4.2,0.4c0.4,0.7-1.8,0.4-1,1.3c0.4,0.5,1.8,0.1,2.7,0.2
			c1.4,0,2.9,0.3,4.2,0c3.6-0.7-3.4-1.7,0-2.3c2.7-0.5,5.5-0.4,8.3-0.6c-7.2-0.1-14.6-3.2-21.6,0.7c-0.7,0.4-1.3,0.2-1.6-0.6
			c-0.3-0.7,0.1-1.4,0.7-1.8c2-1.3,4.6-0.3,6.9-1.4c-3-1.8-7.2-0.6-9.5-3.7c8.6-5.9,18.6-2.3,28.8-4.7c-4.9-2-9.2,0.3-13.6-2.3
			c6-0.6,11.3,0.1,16.4-1.1c0-0.5,0-0.9,0-1.4h-36.4c0-0.5,0-1,0-1.5c10.4-3,21.3-1.1,32.6-2.1c-4.6-2.7-9,0.4-12.9-2.5h25.1
			c-2-1.1-4.1-1.1-6.2-1.4c-1.2-0.1-2.9-1.4-2.4-2.1c2.9-4.6-2.1-2.5-3-3.8c0,0,0,0.1,0,0.1c-1.6-1.1-3.5-1.1-5.3-0.9
			c-6.1,0.8-11.5-0.6-16.7-4.2c11.1-4,23.3-0.7,35.5-6.2C621,78.9,615.6,78.9,610.2,79z M110.2,119.9c-0.5,0.2-1.4,0.2-1.9-0.1
			c-1.6-1-2.7-2.7-4.6-3.2c-0.8,0.9-1.7,0.5-2.6,0.3c-2.2-0.8-4.3-1.6-7.6-2.8c3.4-0.5,5.5-0.1,7.6,0.5l-0.3,0.2
			c5.9-1.9,8.1-1.3,9.7,2.7C110.9,118.3,111.4,119.3,110.2,119.9z M118.7,115.9c-0.9,0.2-2,0.3-2.3-0.7c-0.5-1.6,0.9-1.8,2-2
			c1.1-0.2,2.2-0.2,3,0.8C120.8,115,119.9,115.7,118.7,115.9z M126.3,21.4c3.2-1.4,5.9-1.4,8.6-1.2
			C132.4,22.4,129.8,22.4,126.3,21.4z M126.8,12.5c5-2,5-2,8.9,0.8C132.6,13.4,129.9,13.4,126.8,12.5z M151.4,122.7
			c-1-0.1-2-0.6-2.1-1.5c-0.2-1.1,1-1.3,1.9-1.5c1,0.1,1.7,0.7,1.6,1.8C152.7,122.2,152.1,122.8,151.4,122.7z M154.5,9.3
			c-0.9,0.3-2,0.4-2.4-0.7c-0.2-0.5,0.4-1.2,0.5-1.9c0.2-1.2,1-1.6,2-1.2c1.3,0.5,2.4,1.4,3.7,2.1C157,8.3,155.8,8.9,154.5,9.3z
			 M163.4,5.6c3-0.2,5.4-0.8,7.7,0.7C168.9,5.8,166.3,8.1,163.4,5.6z M183.3,21.4c2-1.2,2.6-1.7,3.2-1.8c1.4-0.1,2.7,0,4.7,0
			C189.3,22.7,187,22.2,183.3,21.4z M206.8,21.1c-1.1-1.7,1.1-1.8,2.3-2c0.4,0,0.8,0.3,1.9,0.6C209.5,21,207.7,22.5,206.8,21.1z
			 M226,14.7c-0.3-0.2-0.7-0.3-1.1-0.5c0.4-0.3,0.7-0.6,1.1-0.8c0.4-0.1,1.1-0.1,1.2,0C227.3,14.3,226.7,14.6,226,14.7z M246.3,11.9
			c-0.3,0-0.6-0.3-1.4-0.8c1.3-0.1,2-0.2,2.6-0.1c0.2,0,0.4,0.4,0.7,0.7C247.5,11.8,246.9,11.9,246.3,11.9z M264.5,18.7
			c-2.2,0.4-1.9-2.1-3.1-3.1c1.8-0.6,3.7-1.2,4.9,0.5C266.8,16.8,265.6,18.5,264.5,18.7z M490.4,8.1C490.3,8.1,490.3,8.1,490.4,8.1
			l13.5,0C499.3,9.1,494.8,10.2,490.4,8.1z M614.3,90.4c0.2,4.1-3.1,1.5-4.7,2.2C611.1,91.9,612.7,91.1,614.3,90.4z M597.2,77.3
			c3.6-3.2,6.7-0.5,9.8-0.2c0,0,0,0,0.1,0C604,77.1,600.9,77.9,597.2,77.3z"/>
		<path class="st0" d="M199.1,9.3c0,0.1,0,0.1,0,0.2c0.1,0,0.1,0,0.2-0.1L199.1,9.3z"/>
	</g>
	<path class="st0" d="M574.9,135.1c-2.7,1-4.4,1.4-6.1,0.2C570.5,133.7,572.2,134.7,574.9,135.1z"/>
	<path class="st0" d="M17.4,77.1c-1,0.9-2.1,0.6-3.1,0.3c-0.7-0.2-0.6-0.7,0-0.8C15.4,76.3,16.5,75.9,17.4,77.1z"/>
	<path class="st0" d="M587.9,37.7c1.9-1.7,3.1-1.1,4.8-0.9C591,38.2,589.8,37.5,587.9,37.7z"/>
	<path class="st0" d="M100.9,114.8c1.1-0.1,2.2-0.2,3.3-0.2c1,0,2.6-0.1,2.3,1.4c-0.3,1.4-1.7,0.8-2.8,0.5c-0.8,0.9-1.7,0.5-2.6,0.3
		c0-0.8,0-1.5,0.1-2.3L100.9,114.8z"/>
</g>
</svg>
